<svg xmlns="http://www.w3.org/2000/svg" xmlns:svgjs="http://svgjs.com/svgjs" xmlns:xlink="http://www.w3.org/1999/xlink" id="SvgjsSvg1006" width="872" height="389" version="1.1"><defs id="SvgjsDefs1007"><marker id="SvgjsMarker1053" stroke-dasharray="0 0" markerHeight="9" markerUnits="userSpaceOnUse" markerWidth="13" orient="auto" refX="9.5" refY="4.5" viewBox="0 0 13 9"><path id="SvgjsPath1054" fill="#323232" stroke="#323232" stroke-width="1" d="M0,0 L13,4.5 L0,9 L0,0"/></marker><marker id="SvgjsMarker1057" stroke-dasharray="0 0" markerHeight="9" markerUnits="userSpaceOnUse" markerWidth="13" orient="auto" refX="9.5" refY="4.5" viewBox="0 0 13 9"><path id="SvgjsPath1058" fill="#323232" stroke="#323232" stroke-width="1" d="M0,0 L13,4.5 L0,9 L0,0"/></marker><marker id="SvgjsMarker1061" stroke-dasharray="0 0" markerHeight="9" markerUnits="userSpaceOnUse" markerWidth="13" orient="auto" refX="9.5" refY="4.5" viewBox="0 0 13 9"><path id="SvgjsPath1062" fill="#323232" stroke="#323232" stroke-width="1" d="M0,0 L13,4.5 L0,9 L0,0"/></marker><marker id="SvgjsMarker1065" stroke-dasharray="0 0" markerHeight="9" markerUnits="userSpaceOnUse" markerWidth="13" orient="auto" refX="9.5" refY="4.5" viewBox="0 0 13 9"><path id="SvgjsPath1066" fill="#323232" stroke="#323232" stroke-width="1" d="M0,0 L13,4.5 L0,9 L0,0"/></marker></defs><rect id="svgbackgroundid" width="872" height="389" fill="transparent"/><rect id="SvgjsRect1009" width="872" height="389" fill="url(#pattern_mark_0)"/><rect id="SvgjsRect1010" width="872" height="389" fill="url(#pattern_mark_1)"/><g id="SvgjsG1011" transform="translate(576,95)"><path id="SvgjsPath1012" fill="#e74f4c" fill-opacity="1" stroke="rgba(33,41,48,1)" stroke-width="1.5" d="M 0 0L 30 0L 30 185L 0 185Z"/></g><g id="SvgjsG1015" transform="translate(603,95)"><path id="SvgjsPath1016" fill="#fff" fill-opacity="1" stroke="rgba(33,41,48,1)" stroke-width="1.5" d="M 0 0L 244 0L 244 185L 0 185Z"/><g id="SvgjsG1017"><text id="SvgjsText1018" width="224" y="74.5" fill="#323232" align="middle" anchor="middle" family="&quot;Microsoft YaHei&quot;, 微软雅黑, Arial" font-family="&quot;Microsoft YaHei&quot;, 微软雅黑, Arial" font-size="20" font-weight="700" lineHeight="125%" opacity="1" size="20" text-anchor="middle" transform="rotate(0)" weight="700"><tspan id="SvgjsTspan1019" x="122" dy="25"><tspan id="SvgjsTspan1020">future</tspan></tspan></text></g></g><g id="SvgjsG1021" transform="translate(103,95)"><path id="SvgjsPath1022" fill="#fced1f" fill-opacity="1" stroke="rgba(33,41,48,1)" stroke-width="1.5" d="M 0 0L 138 0L 138 185L 0 185Z"/><g id="SvgjsG1023"><text id="SvgjsText1024" width="118" y="74.5" fill="#323232" align="middle" anchor="middle" family="&quot;Microsoft YaHei&quot;, 微软雅黑, Arial" font-family="&quot;Microsoft YaHei&quot;, 微软雅黑, Arial" font-size="20" font-weight="700" lineHeight="125%" opacity="1" size="20" text-anchor="middle" transform="rotate(0)" weight="700"><tspan id="SvgjsTspan1025" x="69" dy="25"><tspan id="SvgjsTspan1026">expire</tspan></tspan></text></g></g><g id="SvgjsG1027" transform="translate(241,95)"><path id="SvgjsPath1028" fill="#7bd144" fill-opacity="1" stroke="rgba(33,41,48,1)" stroke-width="1.5" d="M 0 0L 335 0L 335 185L 0 185Z"/><g id="SvgjsG1029"><text id="SvgjsText1030" width="315" y="74.5" fill="#323232" align="middle" anchor="middle" family="&quot;Microsoft YaHei&quot;, 微软雅黑, Arial" font-family="&quot;Microsoft YaHei&quot;, 微软雅黑, Arial" font-size="20" font-weight="400" lineHeight="125%" opacity="1" size="20" text-anchor="middle" transform="rotate(0)" weight="400"><tspan id="SvgjsTspan1031" x="167.5" dy="25"><tspan id="SvgjsTspan1032">invalid</tspan></tspan></text></g></g><g id="SvgjsG1033" transform="translate(82,324)"><path id="SvgjsPath1034" fill="none" stroke="none" d="M 0 0L 321 0L 321 40L 0 40Z"/><g id="SvgjsG1035"><text id="SvgjsText1036" width="321" y="7.625" fill="#323232" align="middle" anchor="middle" family="&quot;Microsoft YaHei&quot;, 微软雅黑, Arial" font-family="&quot;Microsoft YaHei&quot;, 微软雅黑, Arial" font-size="15" font-weight="400" lineHeight="125%" opacity="1" size="15" text-anchor="middle" transform="rotate(0)" weight="400"><tspan id="SvgjsTspan1037" x="160.5" dy="18.75"><tspan id="SvgjsTspan1038" style="font-weight:700">now - burst_elapsed</tspan></tspan></text></g></g><g id="SvgjsG1039" transform="translate(415,25)"><path id="SvgjsPath1040" fill="none" stroke="none" d="M 0 0L 321 0L 321 40L 0 40Z"/><g id="SvgjsG1041"><text id="SvgjsText1042" width="321" y="7.625" fill="#323232" align="middle" anchor="middle" family="&quot;Microsoft YaHei&quot;, 微软雅黑, Arial" font-family="&quot;Microsoft YaHei&quot;, 微软雅黑, Arial" font-size="15" font-weight="400" lineHeight="125%" opacity="1" size="15" text-anchor="middle" transform="rotate(0)" weight="400"><tspan id="SvgjsTspan1043" x="160.5" dy="18.75"><tspan id="SvgjsTspan1044" style="font-weight:700">now - one_token_elapsed</tspan></tspan></text></g></g><g id="SvgjsG1045" transform="translate(444,320)"><path id="SvgjsPath1046" fill="none" stroke="none" d="M 0 0L 321 0L 321 40L 0 40Z"/><g id="SvgjsG1047"><text id="SvgjsText1048" width="321" y="7.625" fill="#323232" align="middle" anchor="middle" family="&quot;Microsoft YaHei&quot;, 微软雅黑, Arial" font-family="&quot;Microsoft YaHei&quot;, 微软雅黑, Arial" font-size="15" font-weight="400" lineHeight="125%" opacity="1" size="15" text-anchor="middle" transform="rotate(0)" weight="400"><tspan id="SvgjsTspan1049" x="160.5" dy="18.75"><tspan id="SvgjsTspan1050" style="font-weight:700">now</tspan></tspan></text></g></g><g id="SvgjsG1051"><path id="SvgjsPath1052" fill="none" stroke="#323232" stroke-width="1.5" marker-end="url(#SvgjsMarker1053)" d="M25 187.5L314 187.5L314 187.5L600.3 187.5"/></g><g id="SvgjsG1055"><path id="SvgjsPath1056" fill="none" stroke="#323232" stroke-width="1.5" marker-end="url(#SvgjsMarker1057)" d="M575.5 65.75L575.5 80.2838636441065L575.5 80.2838636441065L575.5 92.86772728821302"/></g><g id="SvgjsG1059"><path id="SvgjsPath1060" fill="none" stroke="#323232" stroke-width="1.5" marker-end="url(#SvgjsMarker1061)" d="M604.5 319.25L604.5 299.70241190740165L604.5 299.70241190740165L604.5 282.1048238148033"/></g><g id="SvgjsG1063"><path id="SvgjsPath1064" fill="none" stroke="#323232" stroke-width="1.5" marker-end="url(#SvgjsMarker1065)" d="M242.5 323.25L242.5 301.722854038543L242.2586407820997 301.722854038543L242.2586407820997 282.14570807708606"/></g></svg>