<svg xmlns="http://www.w3.org/2000/svg" xmlns:svgjs="http://svgjs.com/svgjs" xmlns:xlink="http://www.w3.org/1999/xlink" id="SvgjsSvg1006" width="1174.222" height="539" version="1.1"><defs id="SvgjsDefs1007"><marker id="SvgjsMarker1037" stroke-dasharray="0 0" markerHeight="9" markerUnits="userSpaceOnUse" markerWidth="13" orient="auto" refX="9.5" refY="4.5" viewBox="0 0 13 9"><path id="SvgjsPath1038" fill="#323232" stroke="#323232" stroke-width="1" d="M0,0 L13,4.5 L0,9 L0,0"/></marker><marker id="SvgjsMarker1047" stroke-dasharray="0 0" markerHeight="9" markerUnits="userSpaceOnUse" markerWidth="13" orient="auto" refX="9.5" refY="4.5" viewBox="0 0 13 9"><path id="SvgjsPath1048" fill="#323232" stroke="#323232" stroke-width="1" d="M0,0 L13,4.5 L0,9 L0,0"/></marker><marker id="SvgjsMarker1057" stroke-dasharray="0 0" markerHeight="9" markerUnits="userSpaceOnUse" markerWidth="13" orient="auto" refX="9.5" refY="4.5" viewBox="0 0 13 9"><path id="SvgjsPath1058" fill="#323232" stroke="#323232" stroke-width="1" d="M0,0 L13,4.5 L0,9 L0,0"/></marker><marker id="SvgjsMarker1068" stroke-dasharray="0 0" markerHeight="9" markerUnits="userSpaceOnUse" markerWidth="13" orient="auto" refX="9.5" refY="4.5" viewBox="0 0 13 9"><path id="SvgjsPath1069" fill="#323232" stroke="#323232" stroke-width="1" d="M0,0 L13,4.5 L0,9 L0,0"/></marker><marker id="SvgjsMarker1134" stroke-dasharray="0 0" markerHeight="9" markerUnits="userSpaceOnUse" markerWidth="13" orient="auto" refX="9.5" refY="4.5" viewBox="0 0 13 9"><path id="SvgjsPath1135" fill="#323232" stroke="#323232" stroke-width="1" d="M0,0 L13,4.5 L0,9 L0,0"/></marker><marker id="SvgjsMarker1144" stroke-dasharray="0 0" markerHeight="9" markerUnits="userSpaceOnUse" markerWidth="13" orient="auto" refX="9.5" refY="4.5" viewBox="0 0 13 9"><path id="SvgjsPath1145" fill="#323232" stroke="#323232" stroke-width="1" d="M0,0 L13,4.5 L0,9 L0,0"/></marker><marker id="SvgjsMarker1154" stroke-dasharray="0 0" markerHeight="9" markerUnits="userSpaceOnUse" markerWidth="13" orient="auto" refX="9.5" refY="4.5" viewBox="0 0 13 9"><path id="SvgjsPath1155" fill="#323232" stroke="#323232" stroke-width="1" d="M0,0 L13,4.5 L0,9 L0,0"/></marker><marker id="SvgjsMarker1158" stroke-dasharray="0 0" markerHeight="9" markerUnits="userSpaceOnUse" markerWidth="13" orient="auto" refX="9.5" refY="4.5" viewBox="0 0 13 9"><path id="SvgjsPath1159" fill="#323232" stroke="#323232" stroke-width="1" d="M0,0 L13,4.5 L0,9 L0,0"/></marker></defs><rect id="svgbackgroundid" width="1174.222" height="539" fill="transparent"/><rect id="SvgjsRect1009" width="1174.222" height="539" fill="url(#pattern_mark_0)"/><rect id="SvgjsRect1010" width="1174.222" height="539" fill="url(#pattern_mark_1)"/><g id="SvgjsG1011" transform="translate(160,25)"><path id="SvgjsPath1012" fill="#e3edff" fill-opacity="1" stroke="rgba(195,215,250,1)" stroke-width="1.5" d="M 0 18Q 0 0 18 0L 400 0Q 418 0 418 18L 418 338Q 418 356 400 356L 18 356Q 0 356 0 338L 0 18Z"/></g><g id="SvgjsG1015" transform="translate(375,39)"><path id="SvgjsPath1016" fill="none" stroke="none" d="M 0 0L 193.22222222222223 0L 193.22222222222223 41L 0 41Z"/><g id="SvgjsG1017"><text id="SvgjsText1018" width="194" y="2.5" fill="#323232" align="middle" anchor="middle" family="&quot;Microsoft YaHei&quot;, 微软雅黑, Arial" font-family="&quot;Microsoft YaHei&quot;, 微软雅黑, Arial" font-size="20" font-weight="700" lineHeight="125%" opacity="1" size="20" text-anchor="middle" transform="rotate(0)" weight="700"><tspan id="SvgjsTspan1019" x="97" dy="25"><tspan id="SvgjsTspan1020">TokenBucketLimter</tspan></tspan></text></g></g><g id="SvgjsG1021" transform="translate(264,182)"><path id="SvgjsPath1022" fill="#fff" fill-opacity="1" stroke="rgba(33,41,48,1)" stroke-width="1.5" d="M 0 37L 61 0L 122 37L 61 74L 0 37Z"/><g id="SvgjsG1023"><text id="SvgjsText1024" width="102" y="15.125" fill="#323232" align="middle" anchor="middle" family="&quot;Microsoft YaHei&quot;, 微软雅黑, Arial" font-family="&quot;Microsoft YaHei&quot;, 微软雅黑, Arial" font-size="15" font-weight="700" lineHeight="125%" opacity="1" size="15" text-anchor="middle" transform="rotate(0)" weight="700"><tspan id="SvgjsTspan1025" x="61" dy="18.75"><tspan id="SvgjsTspan1026">enough </tspan></tspan><tspan id="SvgjsTspan1027" x="61" dy="18.75"><tspan id="SvgjsTspan1028">tokens?</tspan></tspan></text></g></g><g id="SvgjsG1029" transform="translate(447,184)"><path id="SvgjsPath1030" fill="#569230" fill-opacity="1" stroke="rgba(33,41,48,1)" stroke-width="1.5" d="M 0 4Q 0 0 4 0L 96 0Q 100 0 100 4L 100 66Q 100 70 96 70L 4 70Q 0 70 0 66L 0 4ZM 16.666666666666668 0L 16.666666666666668 70M 83.33333333333333 0L 83.33333333333333 70"/><g id="SvgjsG1031"><text id="SvgjsText1032" width="67" y="22.625" fill="#fff" align="middle" anchor="middle" family="&quot;Microsoft YaHei&quot;, 微软雅黑, Arial" font-family="&quot;Microsoft YaHei&quot;, 微软雅黑, Arial" font-size="15" font-weight="700" lineHeight="125%" opacity="1" size="15" text-anchor="middle" transform="rotate(0)" weight="700"><tspan id="SvgjsTspan1033" x="50.167" dy="18.75"><tspan id="SvgjsTspan1034">Continue</tspan></tspan></text></g></g><g id="SvgjsG1035"><path id="SvgjsPath1036" fill="none" stroke="#323232" stroke-width="1.5" marker-end="url(#SvgjsMarker1037)" d="M386.75 219L416.5 219L416.5 219L444.29999999999995 219"/></g><g id="SvgjsG1039" transform="translate(275,293)"><path id="SvgjsPath1040" fill="#e74f4c" fill-opacity="1" stroke="rgba(33,41,48,1)" stroke-width="1.5" d="M 0 4Q 0 0 4 0L 96 0Q 100 0 100 4L 100 66Q 100 70 96 70L 4 70Q 0 70 0 66L 0 4ZM 16.666666666666668 0L 16.666666666666668 70M 83.33333333333333 0L 83.33333333333333 70"/><g id="SvgjsG1041"><text id="SvgjsText1042" width="67" y="22.625" fill="#fff" align="middle" anchor="middle" family="&quot;Microsoft YaHei&quot;, 微软雅黑, Arial" font-family="&quot;Microsoft YaHei&quot;, 微软雅黑, Arial" font-size="15" font-weight="700" lineHeight="125%" opacity="1" size="15" text-anchor="middle" transform="rotate(0)" weight="700"><tspan id="SvgjsTspan1043" x="50.167" dy="18.75"><tspan id="SvgjsTspan1044">Reject</tspan></tspan></text></g></g><g id="SvgjsG1045"><path id="SvgjsPath1046" fill="none" stroke="#323232" stroke-width="1.5" marker-end="url(#SvgjsMarker1047)" d="M325 256.75L325 274.25L325 274.25L325 290.3"/></g><g id="SvgjsG1049" transform="translate(290,74)"><path id="SvgjsPath1050" fill="#fff" fill-opacity="1" stroke="rgba(33,41,48,1)" stroke-width="1.5" d="M 0 9.8C 0 -2.8000000000000003 70 -2.8000000000000003 70 9.8L 70 60.20000000000001C 70 72.8 0 72.8 0 60.20000000000001L 0 9.8Z"/><path id="SvgjsPath1051" fill="#fff" fill-opacity="1" stroke="rgba(33,41,48,1)" stroke-width="1.5" d="M 70 9.8C 70 21 0 21 0 9.8L 0 14C 0 25.2 70 25.2 70 14L 70 18.2C 70 29.400000000000002 0 29.400000000000002 0 18.2C 0 29.400000000000002 70 29.400000000000002 70 18.2Z"/><path id="SvgjsPath1052" fill="none" stroke="none" d="M 0 7Q 35 -7 70 7L 70 63Q 35 77 0 63L 0 7Z"/></g><g id="SvgjsG1055"><path id="SvgjsPath1056" fill="none" stroke="#323232" stroke-width="1.5" marker-end="url(#SvgjsMarker1057)" d="M325 144.75L325 162.75L325 162.75L325 179.3"/></g><g id="SvgjsG1059" transform="translate(362,80.5)"><path id="SvgjsPath1060" fill="none" stroke="rgba(33,41,48,1)" stroke-width="1.5" d="M 0 57Q 9 57 9 51.3L 9 34.2Q 9 28.5 22 28.5Q 9 28.5 9 22.8L 9 5.7Q 9 0 0 0"/><path id="SvgjsPath1061" fill="none" stroke="none" d="M 0 0L 134 0L 134 57L 0 57Z"/><g id="SvgjsG1062"><text id="SvgjsText1063" width="107" y="16.125" fill="#323232" align="middle" anchor="start" family="&quot;Microsoft YaHei&quot;, 微软雅黑, Arial" font-family="&quot;Microsoft YaHei&quot;, 微软雅黑, Arial" font-size="15" font-weight="400" lineHeight="125%" opacity="1" size="15" text-anchor="start" transform="rotate(0)" weight="400"><tspan id="SvgjsTspan1064" x="27" dy="18.75"><tspan id="SvgjsTspan1065" style="font-weight:700">burst</tspan></tspan></text></g></g><g id="SvgjsG1066"><path id="SvgjsPath1067" fill="none" stroke="#323232" stroke-width="1.5" marker-end="url(#SvgjsMarker1068)" d="M254 74C 267 25 325 45.599999999999994 324.1469699699522 71.43829358281701"/></g><g id="SvgjsG1070" transform="translate(182,74)"><path id="SvgjsPath1071" fill="none" stroke="none" d="M 0 0L 100 0L 100 41L 0 41Z"/><g id="SvgjsG1072"><text id="SvgjsText1073" width="100" y="8.125" fill="#323232" align="middle" anchor="middle" family="&quot;Microsoft YaHei&quot;, 微软雅黑, Arial" font-family="&quot;Microsoft YaHei&quot;, 微软雅黑, Arial" font-size="15" font-weight="400" lineHeight="125%" opacity="1" size="15" text-anchor="middle" transform="rotate(0)" weight="400"><tspan id="SvgjsTspan1074" x="50" dy="18.75"><tspan id="SvgjsTspan1075" style="font-weight:700">rate(tokens/s)</tspan></tspan></text></g></g><g id="SvgjsG1076" transform="translate(360,180)"><path id="SvgjsPath1077" fill="none" stroke="none" d="M 0 0L 100 0L 100 41L 0 41Z"/><g id="SvgjsG1078"><text id="SvgjsText1079" width="100" y="9.875" fill="#323232" align="middle" anchor="middle" family="&quot;Microsoft YaHei&quot;, 微软雅黑, Arial" font-family="&quot;Microsoft YaHei&quot;, 微软雅黑, Arial" font-size="13" font-weight="400" lineHeight="125%" opacity="1" size="13" text-anchor="middle" transform="rotate(0)" weight="400"><tspan id="SvgjsTspan1080" x="50" dy="16.25"><tspan id="SvgjsTspan1081" style="font-weight:700">Y</tspan></tspan></text></g></g><g id="SvgjsG1082" transform="translate(296,246)"><path id="SvgjsPath1083" fill="none" stroke="none" d="M 0 0L 100 0L 100 41L 0 41Z"/><g id="SvgjsG1084"><text id="SvgjsText1085" width="100" y="9.875" fill="#323232" align="middle" anchor="middle" family="&quot;Microsoft YaHei&quot;, 微软雅黑, Arial" font-family="&quot;Microsoft YaHei&quot;, 微软雅黑, Arial" font-size="13" font-weight="400" lineHeight="125%" opacity="1" size="13" text-anchor="middle" transform="rotate(0)" weight="400"><tspan id="SvgjsTspan1086" x="50" dy="16.25"><tspan id="SvgjsTspan1087" style="font-weight:700">N</tspan></tspan></text></g></g><g id="SvgjsG1088" transform="translate(25,198.5)"><path id="SvgjsPath1089" fill="#fff" fill-opacity="1" stroke="rgba(33,41,48,1)" stroke-width="1.5" d="M 0 13.529999999999998L 113.5 13.529999999999998L 113.5 0L 134 20.5L 113.5 41L 113.5 27.47L 0 27.47L 0 13.529999999999998Z"/></g><g id="SvgjsG1092" transform="translate(26,171)"><path id="SvgjsPath1093" fill="none" stroke="none" d="M 0 0L 100 0L 100 41L 0 41Z"/><g id="SvgjsG1094"><text id="SvgjsText1095" width="100" y="8.125" fill="#323232" align="middle" anchor="middle" family="&quot;Microsoft YaHei&quot;, 微软雅黑, Arial" font-family="&quot;Microsoft YaHei&quot;, 微软雅黑, Arial" font-size="15" font-weight="400" lineHeight="125%" opacity="1" size="15" text-anchor="middle" transform="rotate(0)" weight="400"><tspan id="SvgjsTspan1096" x="50" dy="18.75"><tspan id="SvgjsTspan1097" style="fill:#e855a4;font-weight:700">cur_req</tspan></tspan></text></g></g><g id="SvgjsG1098" transform="translate(606,184)"><path id="SvgjsPath1099" fill="#fff" fill-opacity="1" stroke="rgba(33,41,48,1)" stroke-width="1.5" d="M 0 0L 392 0L 392 70L 0 70Z"/></g><g id="SvgjsG1102" transform="translate(923,194)"><path id="SvgjsPath1103" fill="#fff" fill-opacity="1" stroke="rgba(33,41,48,1)" stroke-width="1.5" d="M 0 0L 54 0L 54 50L 0 50Z"/><g id="SvgjsG1104"><text id="SvgjsText1105" width="34" y="13.25" fill="#323232" align="middle" anchor="middle" family="&quot;Microsoft YaHei&quot;, 微软雅黑, Arial" font-family="&quot;Microsoft YaHei&quot;, 微软雅黑, Arial" font-size="14" font-weight="400" lineHeight="125%" opacity="1" size="14" text-anchor="middle" transform="rotate(0)" weight="400"><tspan id="SvgjsTspan1106" x="27" dy="17.5"><tspan id="SvgjsTspan1107" style="font-weight:700">reqN</tspan></tspan></text></g></g><g id="SvgjsG1108" transform="translate(849,194)"><path id="SvgjsPath1109" fill="#fff" fill-opacity="1" stroke="rgba(33,41,48,1)" stroke-width="1.5" d="M 0 0L 54 0L 54 50L 0 50Z"/><g id="SvgjsG1110"><text id="SvgjsText1111" width="34" y="15" fill="#323232" align="middle" anchor="middle" family="&quot;Microsoft YaHei&quot;, 微软雅黑, Arial" font-family="&quot;Microsoft YaHei&quot;, 微软雅黑, Arial" font-size="12" font-weight="400" lineHeight="125%" opacity="1" size="12" text-anchor="middle" transform="rotate(0)" weight="400"><tspan id="SvgjsTspan1112" x="27" dy="15"><tspan id="SvgjsTspan1113" style="font-weight:700">...</tspan></tspan></text></g></g><g id="SvgjsG1114" transform="translate(775,194)"><path id="SvgjsPath1115" fill="#fff" fill-opacity="1" stroke="rgba(33,41,48,1)" stroke-width="1.5" d="M 0 0L 54 0L 54 50L 0 50Z"/><g id="SvgjsG1116"><text id="SvgjsText1117" width="34" y="13.25" fill="#323232" align="middle" anchor="middle" family="&quot;Microsoft YaHei&quot;, 微软雅黑, Arial" font-family="&quot;Microsoft YaHei&quot;, 微软雅黑, Arial" font-size="14" font-weight="400" lineHeight="125%" opacity="1" size="14" text-anchor="middle" transform="rotate(0)" weight="400"><tspan id="SvgjsTspan1118" x="27" dy="17.5"><tspan id="SvgjsTspan1119" style="font-weight:700">req3</tspan></tspan></text></g></g><g id="SvgjsG1120" transform="translate(701,194)"><path id="SvgjsPath1121" fill="#fff" fill-opacity="1" stroke="rgba(33,41,48,1)" stroke-width="1.5" d="M 0 0L 54 0L 54 50L 0 50Z"/><g id="SvgjsG1122"><text id="SvgjsText1123" width="34" y="13.25" fill="#323232" align="middle" anchor="middle" family="&quot;Microsoft YaHei&quot;, 微软雅黑, Arial" font-family="&quot;Microsoft YaHei&quot;, 微软雅黑, Arial" font-size="14" font-weight="400" lineHeight="125%" opacity="1" size="14" text-anchor="middle" transform="rotate(0)" weight="400"><tspan id="SvgjsTspan1124" x="27" dy="17.5"><tspan id="SvgjsTspan1125" style="font-weight:700">req2</tspan></tspan></text></g></g><g id="SvgjsG1126" transform="translate(627,194)"><path id="SvgjsPath1127" fill="#fff" fill-opacity="1" stroke="rgba(33,41,48,1)" stroke-width="1.5" d="M 0 0L 54 0L 54 50L 0 50Z"/><g id="SvgjsG1128"><text id="SvgjsText1129" width="34" y="13.25" fill="#323232" align="middle" anchor="middle" family="&quot;Microsoft YaHei&quot;, 微软雅黑, Arial" font-family="&quot;Microsoft YaHei&quot;, 微软雅黑, Arial" font-size="14" font-weight="400" lineHeight="125%" opacity="1" size="14" text-anchor="middle" transform="rotate(0)" weight="400"><tspan id="SvgjsTspan1130" x="27" dy="17.5"><tspan id="SvgjsTspan1131" style="font-weight:700">req1</tspan></tspan></text></g></g><g id="SvgjsG1132"><path id="SvgjsPath1133" fill="none" stroke="#323232" stroke-width="1.5" marker-end="url(#SvgjsMarker1134)" d="M547.75 219C 570.6 219 582.4 219 603.3 219"/></g><g id="SvgjsG1136" transform="translate(1049.2222222222222,184)"><path id="SvgjsPath1137" fill="none" stroke="rgba(0,0,0,1)" stroke-width="1.5" d="M 0 4Q 0 0 4 0L 96 0Q 100 0 100 4L 100 66Q 100 70 96 70L 4 70Q 0 70 0 66L 0 4ZM 16.666666666666668 0L 16.666666666666668 70M 83.33333333333333 0L 83.33333333333333 70"/><g id="SvgjsG1138"><text id="SvgjsText1139" width="67" y="22.625" fill="#fff" align="middle" anchor="middle" family="&quot;Microsoft YaHei&quot;, 微软雅黑, Arial" font-family="&quot;Microsoft YaHei&quot;, 微软雅黑, Arial" font-size="15" font-weight="700" lineHeight="125%" opacity="1" size="15" text-anchor="middle" transform="rotate(0)" weight="700"><tspan id="SvgjsTspan1140" x="50.167" dy="18.75"><tspan id="SvgjsTspan1141" style="fill:#000">Service</tspan></tspan></text></g></g><g id="SvgjsG1142"><path id="SvgjsPath1143" fill="none" stroke="#323232" stroke-width="1.5" marker-end="url(#SvgjsMarker1144)" d="M998.75 219C 1018.4888888888888 219 1028.7333333333333 219 1046.5222222222221 219"/></g><g id="SvgjsG1146" transform="translate(250.94444444444446,444)"><path id="SvgjsPath1147" fill="none" stroke="rgba(0,0,0,1)" stroke-width="1.5" d="M 0 4Q 0 0 4 0L 144.1111111111111 0Q 148.1111111111111 0 148.1111111111111 4L 148.1111111111111 66Q 148.1111111111111 70 144.1111111111111 70L 4 70Q 0 70 0 66L 0 4ZM 20 0L 20 70M 128.1111111111111 0L 128.1111111111111 70"/><g id="SvgjsG1148"><text id="SvgjsText1149" width="109" y="22.625" fill="#fff" align="middle" anchor="middle" family="&quot;Microsoft YaHei&quot;, 微软雅黑, Arial" font-family="&quot;Microsoft YaHei&quot;, 微软雅黑, Arial" font-size="15" font-weight="700" lineHeight="125%" opacity="1" size="15" text-anchor="middle" transform="rotate(0)" weight="700"><tspan id="SvgjsTspan1150" x="74.5" dy="18.75"><tspan id="SvgjsTspan1151" style="fill:#000">SendResponse</tspan></tspan></text></g></g><g id="SvgjsG1152"><path id="SvgjsPath1153" fill="none" stroke="#323232" stroke-width="1.5" marker-end="url(#SvgjsMarker1154)" d="M1099.2222222222222 254.75L1099.2222222222222 479L401.75555555555553 479"/></g><g id="SvgjsG1156"><path id="SvgjsPath1157" fill="none" stroke="#323232" stroke-width="1.5" marker-end="url(#SvgjsMarker1158)" d="M325 363.75L325 403.5L325 403.5L325 441.29999999999995"/></g><g id="SvgjsG1160" transform="matrix(-1,1.2246467991473532e-16,-1.2246467991473532e-16,-1,252,498.3888854980469)"><path id="SvgjsPath1161" fill="#fff" fill-opacity="1" stroke="rgba(33,41,48,1)" stroke-width="1.5" d="M 0 13.529999999999998L 113.5 13.529999999999998L 113.5 0L 134 20.5L 113.5 41L 113.5 27.47L 0 27.47L 0 13.529999999999998Z"/></g><g id="SvgjsG1164" transform="translate(143.77777777777777,432.6111111111111)"><path id="SvgjsPath1165" fill="none" stroke="none" d="M 0 0L 100 0L 100 40L 0 40Z"/><g id="SvgjsG1166"><text id="SvgjsText1167" width="100" y="7.625" fill="#323232" align="middle" anchor="middle" family="&quot;Microsoft YaHei&quot;, 微软雅黑, Arial" font-family="&quot;Microsoft YaHei&quot;, 微软雅黑, Arial" font-size="15" font-weight="400" lineHeight="125%" opacity="1" size="15" text-anchor="middle" transform="rotate(0)" weight="400"><tspan id="SvgjsTspan1168" x="50" dy="18.75"><tspan id="SvgjsTspan1169" style="font-weight:700;fill:#000">response</tspan></tspan></text></g></g><g id="SvgjsG1170" transform="translate(328,389)"><path id="SvgjsPath1171" fill="none" stroke="none" d="M 0 0L 183 0L 183 40L 0 40Z"/><g id="SvgjsG1172"><text id="SvgjsText1173" width="183" y="7.625" fill="#323232" align="middle" anchor="middle" family="&quot;Microsoft YaHei&quot;, 微软雅黑, Arial" font-family="&quot;Microsoft YaHei&quot;, 微软雅黑, Arial" font-size="15" font-weight="400" lineHeight="125%" opacity="1" size="15" text-anchor="middle" transform="rotate(0)" weight="400"><tspan id="SvgjsTspan1174" x="91.5" dy="18.75"><tspan id="SvgjsTspan1175" style="font-weight:700;fill:#e74f4c">failed responese</tspan></tspan></text></g></g><g id="SvgjsG1176" transform="translate(681,444)"><path id="SvgjsPath1177" fill="none" stroke="none" d="M 0 0L 183 0L 183 40L 0 40Z"/><g id="SvgjsG1178"><text id="SvgjsText1179" width="183" y="7.625" fill="#323232" align="middle" anchor="middle" family="&quot;Microsoft YaHei&quot;, 微软雅黑, Arial" font-family="&quot;Microsoft YaHei&quot;, 微软雅黑, Arial" font-size="15" font-weight="400" lineHeight="125%" opacity="1" size="15" text-anchor="middle" transform="rotate(0)" weight="400"><tspan id="SvgjsTspan1180" x="91.5" dy="18.75"><tspan id="SvgjsTspan1181" style="font-weight:700;fill:#7bd144">success responese</tspan></tspan></text></g></g></svg>